<svg width="963" height="1116" viewBox="0 0 963 1116" fill="none" xmlns="http://www.w3.org/2000/svg">
<g clip-path="url(#clip0_12_9)">
<path d="M149.814 453.594H162.298L172.286 456.927L181.441 463.593L189.764 475.258L195.59 484.423L204.745 494.422L213.068 501.921L223.888 508.586L235.54 514.419L250.522 519.418L271.329 523.584L280.485 524.417L307.118 525.251L450.273 526.084L460.261 529.417L467.752 535.249L473.578 541.915L477.739 551.08L478.572 555.246V566.911L476.075 575.244L471.081 583.576L465.255 589.408L453.603 595.241L442.783 596.907L273.826 597.74L253.851 601.073L237.205 606.073L223.888 611.905L209.739 619.404L195.59 629.403L184.77 639.401L175.615 648.567L166.46 661.065L158.969 673.563L151.478 689.394L146.485 705.225L143.988 716.89L142.323 731.055L141.491 752.719L138.994 768.55L134.832 781.881L130.671 791.88L122.348 805.211L116.522 812.71L109.031 821.042L99.8758 828.541L89.0559 836.873L80.7329 845.206L74.0746 856.871L71.5777 865.203L70.7454 896.865V1080.17L69.0808 1091L65.7516 1099.34L58.2609 1107.67L54.0994 1111L47.441 1114.33L41.6149 1116H29.1304L19.1429 1112.67L11.6522 1107.67L4.99379 1100.17L0.832298 1091L0 1087.67V861.037L3.32919 843.539L8.32298 829.375L14.9814 816.043L23.3044 802.712L31.6273 793.546L37.4534 786.881L48.2733 777.715L60.7578 768.55L65.7516 761.884L69.0808 753.552L69.9131 750.219L71.5777 724.389L74.9069 701.059L79.0683 683.562L85.7267 663.565L94.882 643.567L104.037 627.736L113.193 614.405L124.012 601.073L134 590.241L141.491 582.743L148.149 576.91L159.801 567.745L170.621 560.246L167.292 556.08L158.137 548.581L144.82 535.249L134 521.085L125.677 507.753L121.516 497.754L120.683 494.422V484.423L124.012 473.591L129.839 464.426L137.329 458.593L145.652 454.427L149.814 453.594Z" fill="#cbcbe2"/>
<path d="M169.284 0H182.632L191.808 3.33035L199.317 8.32588L205.156 14.154L216.002 29.9732L227.681 46.6249L234.355 56.616L245.201 71.6026L253.543 83.2588L261.051 91.5847L268.56 100.743L274.399 106.571L280.239 113.232L291.084 124.056L297.758 129.884L306.101 137.377L317.781 146.535L332.797 157.359L345.311 165.685L365.333 177.341L381.184 185.667L379.515 182.337L368.67 167.35L357.825 150.698L345.311 129.051L333.631 104.906L329.46 93.2499L328.626 89.0869V81.5936L331.129 71.6026L335.3 63.2767L342.808 55.7834L351.985 50.7879L359.493 49.1227H367.836L377.847 51.6205L387.024 57.4486L393.698 64.9419L411.217 100.743L421.228 117.395L432.073 133.214L440.416 144.038L450.427 155.694L459.604 165.685L472.952 179.006L482.128 186.5L492.139 194.826L507.156 205.649L519.67 213.975L523.841 217.305L529.681 225.631L533.852 234.79L535.521 244.781L534.686 255.605L531.349 266.428L525.51 274.754L522.173 278.917L513.83 284.745L503.819 288.908L500.482 289.741H482.963L457.101 285.578L431.239 279.75L405.377 272.256L373.676 260.6L367.836 258.102H357.825L322.786 259.767L296.09 258.935L262.72 255.605L233.521 250.609L209.328 244.781L189.306 238.953L171.786 233.125L149.261 223.966L129.239 214.808L108.383 203.984L88.361 192.328L64.1676 179.006L49.1511 169.848L43.3113 164.852L38.3058 157.359L34.9688 147.368V135.712L38.3058 125.721L43.3113 118.227L49.1511 112.399L59.1621 107.404L66.6704 105.739H74.1786L81.6869 107.404L95.035 114.065L115.057 125.721L133.411 135.712L152.598 146.535L175.123 157.359L198.482 166.518L221.841 174.011L241.864 179.006H245.201V177.341L241.864 175.676L220.173 154.029L214.333 147.368L203.488 134.879L194.311 123.223L182.632 107.404L173.455 94.0824L160.107 74.9329L154.267 66.607L145.924 54.1182L141.753 44.9597L140.919 42.462V28.308L144.256 19.1495L149.261 11.6562L156.77 4.99553L165.946 0.832588L169.284 0Z" fill="#cbcbe2"/>
<path d="M692.917 220.802H928.252L938.267 223.306L946.612 228.315L952.454 234.158L958.295 245.844L961.633 260.034L964.137 279.233V298.431L961.633 315.125L957.461 330.985L950.785 346.01L942.439 359.366L931.591 371.886L922.411 380.234L907.389 390.25L894.037 396.928L884.023 401.102L868.167 406.11L848.138 410.283H833.951L824.771 406.945L817.261 401.936L810.585 394.424L807.246 387.746L805.577 381.903V366.878L808.915 357.696L813.923 351.018L820.599 345.175L827.275 341.836L852.311 335.993L866.498 330.985L876.512 325.142L881.519 320.969L886.526 313.456L890.699 303.439L892.368 292.588H697.089L684.571 294.258L672.053 297.596L662.039 301.77L648.687 309.282L640.342 315.96L631.996 323.473L622.817 335.159L615.306 348.514L610.299 360.2L606.961 373.556L605.292 387.746L604.457 648.178L601.953 656.526L596.112 665.707L587.767 672.385L577.752 676.559L573.58 677.394H566.069L556.055 674.889L547.709 669.881L541.033 663.203L535.192 651.517L533.522 638.996V388.581L535.192 366.878L538.53 351.018L543.537 334.324L548.544 321.803L555.22 308.448L562.731 295.927L571.076 285.076L581.09 273.39L591.105 263.373L602.788 254.191L613.637 246.679L626.989 239.166L641.176 232.488L661.205 225.811L677.061 222.472L692.917 220.802Z" fill="#cbcbe2"/>
<path d="M444.212 809.275H473.365L490.857 812.618L506.683 818.469L522.509 826.826L532.504 834.348L544.166 844.377L551.662 852.735L559.159 863.6L565.822 875.301L571.653 889.509L575.817 906.224L577.483 919.596V1084.24L574.984 1094.27L571.653 1100.96L564.156 1109.31L554.994 1114.33L549.163 1116H535.836L525.841 1112.66L517.511 1106.81L512.514 1100.96L508.349 1092.6L506.683 1081.73L505.85 922.104L503.351 911.239L498.354 901.209L489.191 891.18L480.029 885.33L471.7 881.987L463.37 880.315H453.375L441.714 882.823L428.386 888.673L412.561 896.195L391.737 903.717L370.913 908.731L355.087 911.239L345.925 912.074H316.772L295.116 909.567L272.626 904.552L257.633 899.538V1082.57L255.967 1092.6L251.803 1100.96L245.972 1107.64L236.81 1113.49L228.48 1116H215.986L205.991 1112.66L198.494 1107.64L191.831 1100.12L187.666 1090.09L186.833 1085.91V863.6L189.332 853.571L195.995 840.199L205.158 830.169L215.153 823.483L226.814 819.305L230.979 818.469H246.805L258.466 821.812L281.789 831.005L296.781 835.184L318.438 838.527H344.259L365.916 835.184L387.572 828.498L402.565 821.812L413.394 816.797L429.219 811.783L444.212 809.275Z" fill="#cbcbe2"/>
<path d="M717.285 429.615H726.434L736.413 432.111L745.562 437.935L752.215 445.423L760.532 457.903L772.175 477.87L780.491 495.342L788.808 516.974L795.461 541.933L799.619 565.229L801.283 582.7V612.652L798.788 636.779L794.629 658.411L788.808 679.21L782.155 697.514L774.67 714.153L767.185 728.297L757.205 744.105L745.562 759.913L735.582 773.224L723.939 789.032L723.107 1083.55L720.612 1095.2L714.79 1104.35L708.137 1110.18L699.821 1114.34L693.999 1116H681.524L671.544 1112.67L663.228 1106.85L658.238 1101.03L654.911 1094.37L652.416 1084.39V765.736L657.406 758.249L665.723 747.433L679.029 729.961L691.504 713.321L703.147 695.85L710.632 682.538L718.117 665.067L723.939 646.763L728.097 627.627L729.76 612.652V584.364L727.265 565.229L722.275 543.597L714.79 523.629L707.305 507.822L696.494 490.35L690.672 481.198L687.346 472.879L686.514 463.727L689.009 452.079L693.999 442.927L699.821 437.103L708.137 432.111L717.285 429.615Z" fill="#cbcbe2"/>
</g>
<defs>
<clipPath id="clip0_12_9">
<rect width="963" height="1116" fill="#cbcbe2"/>
</clipPath>
</defs>
</svg>
